<?xml version="1.0" encoding="UTF-8"?>
<svg xmlns="http://www.w3.org/2000/svg" xmlns:xlink="http://www.w3.org/1999/xlink" width="72px" height="38px" viewBox="0 0 72 38" version="1.1">
<g id="surface1">
<path style=" stroke:none;fill-rule:nonzero;fill:rgb(19.215686%,14.901961%,10.196078%);fill-opacity:1;" d="M 3.90625 9.097656 L 2.71875 8.214844 C 1.972656 7.660156 1.441406 7.117188 1.125 6.578125 C 0.8125 6.035156 0.65625 5.414062 0.65625 4.710938 C 0.65625 3.660156 0.953125 2.804688 1.546875 2.144531 C 2.144531 1.488281 2.921875 1.160156 3.875 1.160156 C 4.785156 1.160156 5.621094 1.472656 6.382812 2.097656 L 6.382812 4.269531 C 5.597656 3.34375 4.75 2.882812 3.84375 2.882812 C 3.332031 2.882812 2.914062 3.03125 2.585938 3.324219 C 2.257812 3.609375 2.09375 3.980469 2.09375 4.433594 C 2.09375 4.835938 2.214844 5.210938 2.453125 5.5625 C 2.691406 5.914062 3.082031 6.28125 3.617188 6.664062 L 4.8125 7.527344 C 6.144531 8.496094 6.8125 9.734375 6.8125 11.242188 C 6.8125 12.316406 6.519531 13.1875 5.929688 13.855469 C 5.347656 14.527344 4.585938 14.863281 3.648438 14.863281 C 2.570312 14.863281 1.589844 14.457031 0.703125 13.648438 L 0.703125 11.214844 C 1.546875 12.523438 2.523438 13.175781 3.632812 13.175781 C 4.121094 13.175781 4.527344 13.011719 4.851562 12.679688 C 5.179688 12.339844 5.34375 11.917969 5.34375 11.414062 C 5.34375 10.597656 4.863281 9.824219 3.90625 9.097656 Z M 16.226562 1.332031 L 17.789062 1.332031 L 17.789062 14.710938 L 16.226562 14.710938 L 16.226562 8.886719 L 10.09375 8.886719 L 10.09375 14.710938 L 8.53125 14.710938 L 8.53125 1.332031 L 10.09375 1.332031 L 10.09375 7.117188 L 16.226562 7.117188 Z M 25.5625 1.140625 C 27.25 1.140625 28.652344 1.792969 29.773438 3.101562 C 30.898438 4.410156 31.460938 6.050781 31.460938 8.023438 C 31.460938 9.996094 30.894531 11.632812 29.757812 12.929688 C 28.628906 14.21875 27.199219 14.863281 25.476562 14.863281 C 23.832031 14.863281 22.457031 14.21875 21.359375 12.929688 C 20.265625 11.632812 19.71875 10.011719 19.71875 8.0625 C 19.71875 6.066406 20.269531 4.410156 21.375 3.101562 C 22.480469 1.792969 23.875 1.140625 25.5625 1.140625 Z M 25.625 2.960938 C 24.375 2.960938 23.347656 3.4375 22.539062 4.394531 C 21.738281 5.351562 21.335938 6.574219 21.335938 8.0625 C 21.335938 9.507812 21.738281 10.707031 22.546875 11.664062 C 23.355469 12.621094 24.363281 13.101562 25.578125 13.101562 C 26.796875 13.101562 27.8125 12.613281 28.625 11.636719 C 29.441406 10.660156 29.851562 9.441406 29.851562 7.988281 C 29.851562 6.570312 29.441406 5.378906 28.625 4.414062 C 27.8125 3.445312 26.8125 2.960938 25.625 2.960938 Z M 33.289062 14.710938 L 33.289062 1.3125 L 36.75 1.3125 C 37.792969 1.3125 38.621094 1.65625 39.242188 2.347656 C 39.863281 3.035156 40.171875 3.960938 40.171875 5.125 C 40.171875 5.902344 40.011719 6.59375 39.695312 7.191406 C 39.378906 7.792969 38.941406 8.230469 38.390625 8.503906 C 37.839844 8.773438 37.046875 8.90625 36.015625 8.90625 L 34.859375 8.90625 L 34.859375 14.710938 Z M 36.476562 3.015625 L 34.859375 3.015625 L 34.859375 7.203125 L 36.570312 7.203125 C 37.207031 7.203125 37.695312 7.019531 38.039062 6.65625 C 38.382812 6.285156 38.554688 5.757812 38.554688 5.074219 C 38.554688 3.703125 37.863281 3.015625 36.476562 3.015625 Z M 11.25 34.238281 C 11.25 35.378906 10.929688 36.292969 10.289062 36.976562 C 9.652344 37.660156 8.761719 38 7.617188 38 L 1.359375 38 L 1.359375 24.726562 L 6.59375 24.726562 C 7.269531 24.726562 7.859375 24.808594 8.359375 24.964844 C 8.863281 25.125 9.269531 25.347656 9.578125 25.628906 C 9.886719 25.902344 10.113281 26.226562 10.265625 26.605469 C 10.417969 26.980469 10.492188 27.390625 10.492188 27.839844 C 10.492188 28.324219 10.414062 28.773438 10.257812 29.191406 C 10.101562 29.597656 9.90625 29.9375 9.671875 30.203125 C 9.441406 30.464844 9.210938 30.652344 8.976562 30.761719 C 9.714844 31.117188 10.277344 31.570312 10.664062 32.121094 C 11.054688 32.664062 11.25 33.367188 11.25 34.238281 Z M 7.4375 28.546875 C 7.4375 27.910156 7.265625 27.484375 6.921875 27.273438 C 6.578125 27.0625 6.042969 26.957031 5.3125 26.957031 L 4.625 26.957031 L 4.625 30.136719 L 5.328125 30.136719 C 6.074219 30.136719 6.609375 30.03125 6.9375 29.820312 C 7.269531 29.609375 7.4375 29.1875 7.4375 28.546875 Z M 7.96875 34.074219 C 7.96875 32.9375 7.296875 32.367188 5.953125 32.367188 L 4.625 32.367188 L 4.625 35.769531 L 5.953125 35.769531 C 7.296875 35.769531 7.96875 35.203125 7.96875 34.074219 Z M 24.765625 38 L 21.421875 38 L 20.539062 35.308594 L 15.835938 35.308594 L 14.9375 38 L 11.59375 38 L 16.382812 24.726562 L 19.992188 24.726562 Z M 19.789062 33 L 18.203125 28.15625 L 16.601562 33 Z M 37.59375 38 L 33.609375 38 L 29.46875 31.785156 L 29.46875 38 L 26.203125 38 L 26.203125 24.726562 L 29.46875 24.726562 L 29.46875 30.664062 L 33.390625 24.726562 L 36.9375 24.726562 L 32.90625 30.941406 Z M 47.179688 38 L 39.015625 38 L 39.015625 24.726562 L 47.046875 24.726562 L 47.046875 27.390625 L 42.28125 27.390625 L 42.28125 29.820312 L 46.828125 29.820312 L 46.828125 32.492188 L 42.28125 32.492188 L 42.28125 35.328125 L 47.179688 35.328125 Z M 59.859375 38 L 56.351562 38 L 55.5 35.644531 C 55.1875 34.78125 54.90625 34.152344 54.65625 33.757812 C 54.40625 33.355469 54.160156 33.101562 53.921875 32.992188 C 53.6875 32.875 53.382812 32.820312 53.007812 32.820312 L 52.640625 32.820312 L 52.640625 38 L 49.375 38 L 49.375 24.726562 L 54.929688 24.726562 C 55.824219 24.726562 56.558594 24.949219 57.132812 25.398438 C 57.707031 25.84375 58.117188 26.386719 58.367188 27.023438 C 58.621094 27.664062 58.75 28.269531 58.75 28.84375 C 58.75 29.515625 58.644531 30.082031 58.429688 30.550781 C 58.222656 31.007812 58 31.34375 57.765625 31.554688 C 57.53125 31.765625 57.269531 31.964844 56.976562 32.160156 C 57.324219 32.40625 57.613281 32.703125 57.835938 33.050781 C 58.066406 33.386719 58.375 34.078125 58.765625 35.117188 Z M 55.421875 28.921875 C 55.421875 28.308594 55.257812 27.878906 54.929688 27.636719 C 54.601562 27.394531 54.066406 27.273438 53.328125 27.273438 L 52.640625 27.273438 L 52.640625 30.472656 L 53.34375 30.472656 C 54.140625 30.472656 54.683594 30.367188 54.976562 30.15625 C 55.273438 29.941406 55.421875 29.527344 55.421875 28.921875 Z M 71.4375 24.726562 L 67.195312 31.917969 L 67.195312 38 L 63.929688 38 L 63.929688 31.996094 L 59.609375 24.726562 L 63 24.726562 L 65.484375 28.902344 L 67.976562 24.726562 Z M 71.4375 24.726562 "/>
</g>
</svg>
